<?xml version="1.0" encoding="utf-8"?>
<!-- Generator: Adobe Illustrator 24.3.0, SVG Export Plug-In . SVG Version: 6.00 Build 0)  -->
<svg version="1.1" id="图层_1" xmlns="http://www.w3.org/2000/svg" xmlns:xlink="http://www.w3.org/1999/xlink" x="0px" y="0px"
	 viewBox="0 0 976.54 948.08" style="enable-background:new 0 0 976.54 948.08;" xml:space="preserve">
<style type="text/css">
	.st0{opacity:0.9;fill:#0A0A0A;}
	.st1{fill:#FFFFFF;}
</style>
<rect y="-7.69" class="st0" width="976.54" height="955.77"/>
<g>
	<path class="st1" d="M455.19,401.94l-31.94,5.71l-5.73-1.14c5.18-41.85,14.46-88.26,27.84-139.25
		c7.37-26.63,11.05-46.6,11.05-59.93v-2.85c-3.01-14.84-13.38-28.34-31.12-40.52c-16.11,17.12-36.44,43-61.01,77.62
		c-23.2,34.63-35.35,51.93-36.44,51.93l4.5-30.82c0-27.77-11.74-48.31-35.21-61.64h-2.46c-10.97,0-35.6,24.45-73.88,73.31
		c-1.6,4.04-4,7.76-6.68,11.21c-0.46,4.31-6.78,6.96-9.19,2.2c-1.67-3.3-1.92-6.42-1.29-9.41c-0.13-1.08,0.07-2.23,0.53-3.3
		c2.51-5.85,5.19-11.35,9.21-16.33c0.16-0.2,0.34-0.37,0.53-0.53c0.89-2.28,1.72-4.57,2.51-6.89c0.8-2.67,1.67-5.3,2.6-7.92
		c1.62-5.06,3.21-10.13,5.03-15.11c2.65-9.38,5.18-20.92,7.58-34.66v-12.56c-6.28-12.56-12.56-19.21-18.83-19.97h-0.82
		c-6.28,7.62-15.15,25.68-26.61,54.22c-6.55,22.83-19.93,56.13-40.13,99.87c-9.83,25.5-16.79,49.65-20.88,72.48v4.57
		c0,2.28-0.82,21.25,0,23.15c10.37,25.11,25.52,24.22,42.99,31.07l2.46-1.71c6-18.64,18.15-44.32,36.44-77.05
		c13.1-21.69,27.84-43.18,44.22-64.49c16.1-20.55,25.65-30.82,28.66-30.82c-1.37,9.13-5.05,23.03-11.06,41.66
		c-2.19,6.85-6.55,29.3-13.1,67.34l-1.05,22.46c8.08,34.48,23.44,23.11,40.56,31.66c0.21,0.02,0.41,0.06,0.61,0.1h2.87l4.03,2.25
		c5.53,0.72,10.97,1.98,16.41,3.23c4.35-25.87,4.61-67.96,28.29-105.93c25.93-39.95,39.58-59.92,40.94-59.92h1.23v1.71
		c-8.74,35.01-13.1,63.73-13.1,86.18v4.57c0,5.33,1.09,13.51,3.28,24.54c18.83,36.15,35.07,54.22,48.72,54.22h0.82
		c8.73,0,19.51-10.84,32.35-32.53v-6.28C460.37,405.74,458.46,403.84,455.19,401.94z"/>
	<path class="st1" d="M834.34,142.63c-9.32,11.35-15.73,21.48-19.23,30.38c-16.31,40.52-29.91,67.67-40.78,81.43
		c-13.21,19.45-23.51,33.63-30.88,42.54c-15.99,22.13-36.67,45.4-61.98,69.81c-1.97,4.94-5.57,9.01-9.25,12.85
		c-1.23,1.29-2.42,2.63-3.58,3.99c-0.05,0.1-0.1,0.21-0.15,0.31c-1.39,2.68-3.16,4.66-5.3,6.13c-1.4,1.61-2.83,3.18-4.35,4.66
		c-0.55,0.53-1.13,0.9-1.73,1.13c-5.06,4.89-11.06,8.7-17.51,6.89c-9.24-2.59-7.63-14.41-4.56-21.63
		c0.38-10.22,5.01-20.43,7.53-30.57c0.16-0.62,0.4-1.16,0.69-1.61l11.05-54.38c13.59-64.01,20.39-101.28,20.39-111.82v-3.65
		c-12.44-18.23-23.31-27.35-32.63-27.35c-11.65,6.89-32.59,16.33-49.68,84.79c-1.27,4.93-2.22,11.97-3.01,20.38
		c0.13,0.46,0.2,0.96,0.2,1.52c-0.07,5.44-0.68,10.79-1.56,16.1c-0.81,12.22-1.54,25.83-2.51,39.48
		c3.75,18.64,3.29,37.94,6.68,56.68c2.25,12.42,5.26,24.69,7.75,37.06c0.87,4.33,1.53,8.75,2.38,13.12
		c17.71,19.51,32.13,29.26,43.24,29.26c6.21,0,20.77-10.53,43.7-31.6c26.8-29.57,50.49-57.93,71.08-85.08
		c0,0.82,0.38,2.03,1.17,3.65l-5.24,35.25l1.17,2.43l-1.17,6.08c2.71,16.21,6.02,30.19,9.9,41.93c17.09,31.6,31.46,47.4,43.12,47.4
		l2.33-1.22c-6.99-6.48-10.49-16.62-10.49-30.38v-4.86c0-34.84,2.33-58.54,6.99-71.1l-1.17-3.04l11.07-42.54
		c10.1-28.76,15.15-44.15,15.15-46.19c11.26-34.03,17.67-51.25,19.23-51.66c2.33-10.53,8.74-23.9,19.23-40.11v-3.65
		C864.63,160.47,852.2,149.53,834.34,142.63z"/>
	<path class="st1" d="M265.21,488.55c10.4,0,28.82,17.55,55.24,52.65l4.8,11.15c0,5.37-18.82,27.05-56.44,65.03
		c-22.02,23.95-34.03,35.92-36.02,35.92c-4.41,4.95-8.81,10.53-13.21,16.72c84.45,85.07,134.09,130.28,148.9,135.64
		c10.81,8.67,16.21,13.41,16.21,14.25v1.24h-1.2c-42.43-9.09-95.46-41.91-159.11-98.48l-30.62-30.35
		c-38.03,34.28-62.65,57.4-73.85,69.37c-19.21,16.1-39.43,29.53-60.64,40.26c-14.41,0-23.82-4.74-28.22-14.25
		c0-9.49,5-20.02,15.01-31.59c0-2.06,32.62-36.33,97.87-102.82c0-1.65,2.2-4.96,6.6-9.91c-44.43-50.79-72.26-90.43-83.46-118.92
		c-4.41-8.26-6.61-14.86-6.61-19.82l3-1.24h1.2c22.01,3.72,51.64,30.15,88.86,79.28c13.21,19.41,19.81,29.94,19.81,31.59
		c1.59,0,8.8-7.84,21.61-23.54c14.01-16.1,31.01-38.19,51.03-66.27c11.6-11.15,17.41-18.16,17.41-21.06c0-0.82-0.81-5.36-2.4-13.63
		l2.4-1.24H265.21z"/>
	<path class="st1" d="M669.31,509.41v3.5c0,0.24-0.06,0.48-0.18,0.7c-9.53,18.03-15.41,32.96-17.64,44.78
		c-0.04,0.24-0.13,0.47-0.3,0.65c-1.75,1.97-7.63,21.44-17.66,58.41c-0.03,0.11-0.04,0.21-0.05,0.32
		c-0.19,2.87-4.89,20.3-14.09,52.3c-0.01,0.03-0.02,0.07-0.03,0.1l-10.22,47.94c-0.05,0.25-0.04,0.51,0.04,0.75l0.83,2.66
		c0.09,0.28,0.09,0.57,0.01,0.85c-4.26,14.39-6.39,41.2-6.39,80.42v5.53c0,14.77,2.9,25.87,8.7,33.26c0.56,0.72,0.37,1.73-0.42,2.23
		l-0.21,0.14c-0.3,0.19-0.67,0.3-1.04,0.28c-10.74-0.61-23.93-18.54-39.54-53.77c-0.03-0.07-0.06-0.15-0.08-0.23
		c-3.59-13.28-6.65-29.06-9.16-47.34c-0.02-0.14-0.02-0.29,0-0.43l0.99-6.3c0.04-0.26,0.01-0.52-0.09-0.77l-0.8-2.04
		c-0.09-0.23-0.12-0.48-0.09-0.72l4.79-39.34c0.03-0.24-0.01-0.49-0.09-0.72c-0.01-0.02-0.01-0.04-0.02-0.05
		c-0.49-1.28-2.36-1.44-3.1-0.26c-18.66,29.79-39.99,60.86-64,93.19c-0.03,0.04-0.06,0.08-0.1,0.12
		c-21.33,23.92-34.88,35.87-40.66,35.87c-12.29,0-28.91-15.62-49.85-46.87c-0.05-0.08-0.1-0.16-0.13-0.24
		c-6.12-13.75-9.17-22.69-9.17-26.82v-24.18c0-2.16-0.32-4.12-0.96-5.89c-0.08-0.22-0.11-0.46-0.08-0.69
		c6.13-46.81,11.72-82.16,16.78-106.05c15.67-76.63,28.89-119.34,39.65-128.13c0.32-0.26,0.74-0.4,1.17-0.37
		c8.49,0.51,18.33,10.75,29.54,30.72c0.13,0.23,0.2,0.48,0.2,0.74v3.76c0,11.98-6.33,54.36-19,127.14l-13.57,81.53
		c0,0.58,0.14,0.97,0.42,1.19c0.43,0.33,0.57,0.9,0.49,1.41l-4.13,29.59c-0.03,0.18-0.02,0.38,0.03,0.56c0.54,2.23,1.07,3.9,1.61,5
		c0.5,1.03,1.98,1.23,2.81,0.41c10.51-10.32,18.38-17.48,23.61-21.49c0.08-0.06,0.16-0.13,0.22-0.21
		c29.98-33.58,53.82-65.32,71.54-95.24c6.87-10.12,16.45-26.24,28.74-48.33c0.01-0.03,0.03-0.05,0.05-0.08
		c10.12-15.67,22.78-46.52,37.97-92.55c3.15-9.79,8.84-20.89,17.06-33.28c0.47-0.71,1.48-0.98,2.27-0.58
		c15.79,7.83,26.86,19.95,33.21,36.35C669.27,509.03,669.31,509.22,669.31,509.41z"/>
	<path class="st1" d="M904.35,748.61h-5.39c-0.05,0-0.09,0.01-0.14,0.02L754,780.86c-0.05,0.01-0.1,0.02-0.15,0.02
		c-12.3-0.01-23.05-2.57-32.25-7.7c-0.2-0.11-0.33-0.33-0.33-0.56V754.4c0-0.04,0-0.07,0.01-0.11c2.31-14.2,8.19-21.35,17.64-21.45
		c0.13,0,0.26-0.04,0.36-0.12c49.83-36.75,89.68-72.32,119.54-106.69c0.01-0.01,0.02-0.03,0.04-0.04
		c21.75-20.54,32.63-41.81,32.63-63.79v-2.04c0-0.07-0.01-0.14-0.03-0.21c-19.44-56.81-42.06-85.22-67.88-85.22
		c-29.32,0-57.46,21.27-84.45,63.81c-22.63,34.4-38.45,69.05-47.44,103.93c0,0.02-0.01,0.04-0.01,0.05
		c-3.11,17.94-5.81,30.5-8.1,37.74c1.17,3.8,0.97,7.98,0.94,11.89c-0.01,0.99,0.01,1.98,0.02,2.96c1.13,3.01,0.92,5.64,0.1,8.03
		c-0.01,1.17-0.03,2.34-0.09,3.51c-0.42,8.61-2.55,16.84-4.23,25.18c2.61,13.68,6.9,13.78,7,16.67c0,0.07,0.01,0.14,0.04,0.2
		c24.95,62.08,53.09,93.11,84.42,93.11h16.11c10.8,0,18.46-1.45,22.98-4.35c0.13-0.08,0.26-0.11,0.39-0.09
		c0.68-0.41,1.51-0.65,2.49-0.65c0.86,0,1.6,0.19,2.22,0.5c36.35-15.5,65.99-41.4,88.91-77.71c0.06-0.1,0.1-0.22,0.1-0.34v-9.93
		C904.99,748.89,904.7,748.61,904.35,748.61z M780.48,634.66c0-0.03,0-0.06,0.01-0.09c0.61-4.8,6.56-16.49,17.83-35.07
		c0.01-0.01,0.02-0.02,0.02-0.04c26.06-37.38,49.15-59.15,69.26-65.33c0.27-0.11,0.57-0.2,0.88-0.26h0
		c0.19-0.06,0.39-0.12,0.58-0.17c0.17-0.05,0.34-0.01,0.48,0.08c0,0,0,0,0,0c0.21,0,0.41,0.01,0.6,0.04c0.04,0,0.08,0.01,0.12,0.02
		c0.15,0.02,0.3,0.05,0.44,0.08c0.05,0.01,0.1,0.03,0.15,0.04c0.13,0.03,0.25,0.07,0.37,0.11c0.05,0.02,0.11,0.04,0.16,0.06
		c0.11,0.04,0.22,0.09,0.32,0.14c0.05,0.03,0.1,0.05,0.16,0.08c0.1,0.05,0.19,0.11,0.28,0.17c0.05,0.03,0.1,0.06,0.14,0.1
		c0.09,0.06,0.17,0.13,0.26,0.2c0.04,0.04,0.09,0.07,0.13,0.11c0.09,0.08,0.16,0.16,0.24,0.25c0.03,0.03,0.07,0.07,0.1,0.1
		c0.1,0.12,0.2,0.24,0.29,0.37c0,0,0,0,0,0c0.05,0,0.1,0.01,0.16,0.01c0.34,0.01,0.62,0.29,0.62,0.63v1.19
		c0.16,0.77,0.16,1.57,0,2.34v1.59c0,0.96-3.48,6.21-10.43,15.75c-0.01,0.02-0.03,0.03-0.04,0.05
		c-28.37,31.94-55.44,58.42-81.21,79.42c-0.11,0.09-0.25,0.14-0.4,0.14h-0.88c-0.35,0-0.63-0.28-0.63-0.63V634.66z"/>
</g>
</svg>
